<svg xmlns="http://www.w3.org/2000/svg" width="100" height="100" viewBox="0 0 100 100">
    <g fill="none" fill-rule="evenodd">
        <path fill="#EAEAEA" fill-rule="nonzero" d="M35.864 53.165v11.502l23.546 3.287 23.892 16.234a3.286 3.286 0 0 0 5.144-2.728V65.03a6.573 6.573 0 0 0-5.127-6.409L59.41 53.165H35.864zM6.288 53.165a3.286 3.286 0 0 0-2.679 5.192 9.76 9.76 0 0 0 6.869 3.911l23.99 2.4v-9.86c0-.907-.735-1.643-1.643-1.643H6.288z"/>
        <path fill="#F7BB2C" fill-opacity=".8" d="M12.984 62.48A7.908 7.908 0 0 1 6 54.626V39.873a7.909 7.909 0 0 1 6.984-7.854l21.417-2.52v35.477c0 .006-7.139-.827-21.417-2.497z"/>
        <path fill="#EAEAEA" fill-rule="nonzero" d="M33.075 94h-6.677L18 65l15.397 1.526 2.45 24.086a3.236 3.236 0 0 1-.694 2.367c-.528.647-1.284 1.018-2.078 1.021z"/>
        <path d="M0 0h100v100H0z"/>
        <path fill="#2D2D2D" fill-rule="nonzero" d="M78.263 63.597c-.921 0-1.666.746-1.666 1.666v7.084a1.666 1.666 0 1 0 3.333 0v-7.084c0-.92-.745-1.666-1.667-1.666z"/>
        <path fill="#2D2D2D" fill-rule="nonzero" d="M96.582 37.992L90 35.798V8.228a4.993 4.993 0 0 0-2.64-4.408 4.989 4.989 0 0 0-5.133.247L60.735 18.395a15.073 15.073 0 0 1-6.568 2.417l-43.864 5.16A11.67 11.67 0 0 0 0 37.558v15.549a11.667 11.667 0 0 0 10.303 11.586l1.67.197 9.037 28.615A4.977 4.977 0 0 0 25.777 97h5.475a5.005 5.005 0 0 0 3.735-1.677 5.004 5.004 0 0 0 1.23-3.906L34.522 77h3.08a4.978 4.978 0 0 0 3.866-1.832 4.976 4.976 0 0 0 1.035-4.15l-.52-2.598 12.184 1.433c2.336.275 4.61 1.11 6.568 2.417l21.492 14.328a4.994 4.994 0 0 0 5.133.247A4.989 4.989 0 0 0 90 82.438v-27.57l6.582-2.193A4.995 4.995 0 0 0 100 47.932v-5.195a4.996 4.996 0 0 0-3.418-4.745zM32.497 93.108c-.32.36-.764.559-1.245.559h-5.475c-.73 0-1.369-.469-1.59-1.165l-8.585-27.184 14.425 1.697c0 .062-.022.117-.015.18l2.895 24.61c.056.478-.09.942-.41 1.303zM10.693 61.383a8.334 8.334 0 0 1-7.36-8.275V37.56a8.334 8.334 0 0 1 7.36-8.277l22.57-2.655v37.387c0 .008.005.017.005.025l-22.575-2.657zM38.89 73.057c-.317.388-.788.61-1.288.61H34.13l-.737-6.255 5.11.601.732 3.662c.098.49-.028.993-.345 1.382zm47.777 9.381c0 .902-.615 1.329-.88 1.47-.264.142-.96.417-1.71-.081L62.585 69.498a18.424 18.424 0 0 0-8.027-2.953l-17.965-2.113.004-38.197 17.96-2.113a18.409 18.409 0 0 0 8.026-2.954l14.012-9.341v47.186a1.666 1.666 0 1 0 3.333 0v-48.75c0-.206.044-.688.044-.688l4.103-2.735c.75-.502 1.445-.225 1.71-.082.267.142.882.569.882 1.47v74.21zm10-34.506c0 .718-.457 1.353-1.14 1.581L90 51.355V39.313l5.527 1.842a1.66 1.66 0 0 1 1.14 1.58v5.197z"/>
        <path fill="#2D2D2D" fill-rule="nonzero" d="M44.93 27.07h-3.333a1.666 1.666 0 1 0 0 3.333h3.333a1.666 1.666 0 1 0 0-3.333zM44.93 35.403h-3.333a1.666 1.666 0 1 0 0 3.334h3.333a1.666 1.666 0 1 0 0-3.334zM44.93 43.737h-3.333a1.666 1.666 0 1 0 0 3.333h3.333a1.666 1.666 0 1 0 0-3.333zM44.93 52.07h-3.333a1.666 1.666 0 1 0 0 3.333h3.333a1.666 1.666 0 1 0 0-3.333zM44.93 60.403h-3.333a1.666 1.666 0 1 0 0 3.334h3.333a1.666 1.666 0 1 0 0-3.334z"/>
    </g>
</svg>
