<svg xmlns="http://www.w3.org/2000/svg" width="11" height="12" viewBox="0 0 11 12">
    <path fill="#2D2D2D" fill-rule="nonzero" d="M7.65.009a2.78 2.78 0 0 0-2.025.874L1.621 5.106c-1.497 1.58-1.497 4.12 0 5.7a.5.5 0 0 0 .166.115c1.508 1.43 3.861 1.413 5.31-.115l2.816-2.972a.5.5 0 1 0-.726-.688l-2.816 2.972c-1.126 1.188-2.897 1.188-4.023 0s-1.126-3.136 0-4.324L6.35 1.57c.732-.772 1.866-.772 2.598 0 .733.773.733 2.048 0 2.82L5.306 8.236c-.34.358-.835.358-1.174 0a.98.98 0 0 1 0-1.317l2.93-3.093a.5.5 0 1 0-.725-.687L3.405 6.23c-.71.75-.71 1.943 0 2.693a.5.5 0 0 0 .168.116c.72.602 1.797.581 2.458-.116l3.644-3.845c1.058-1.116 1.073-2.863.102-4.033a.5.5 0 0 0-.102-.162A2.782 2.782 0 0 0 7.649.009z"/>
</svg>
