<svg xmlns="http://www.w3.org/2000/svg" width="100" height="100" viewBox="0 0 100 100">
    <g fill="none" fill-rule="evenodd">
        <path fill="#EAEAEA" fill-rule="nonzero" d="M75.759 66.387L46.67 37.299a4.171 4.171 0 0 0-6.422.567c-6.68 9.992-5.37 23.312 3.132 31.81 8.5 8.497 21.822 9.802 31.81 3.117a4.171 4.171 0 0 0 .568-6.406z"/>
        <path fill="#F7BB2C" fill-opacity=".8" d="M62 69c-9.374 0-17-7.626-17-17 0-9.374 7.626-17 17-17 9.374 0 17 7.626 17 17 0 9.374-7.626 17-17 17z"/>
        <path fill="#EAEAEA" d="M2 86h70v8H2z"/>
        <path fill="#2D2D2D" fill-rule="nonzero" d="M30.645 37.258h3.226c.892 0 1.613-.72 1.613-1.613 0-.892-.721-1.613-1.613-1.613h-3.226c-.892 0-1.613.721-1.613 1.613s.721 1.613 1.613 1.613zM17.742 37.258h6.452c.891 0 1.612-.72 1.612-1.613 0-.892-.72-1.613-1.612-1.613h-6.452c-.892 0-1.613.721-1.613 1.613s.721 1.613 1.613 1.613zM17.742 43.71h14.516c.892 0 1.613-.721 1.613-1.613s-.721-1.613-1.613-1.613H17.742c-.892 0-1.613.72-1.613 1.613 0 .892.721 1.613 1.613 1.613zM29.032 56.613h-11.29c-.892 0-1.613.72-1.613 1.613 0 .892.721 1.613 1.613 1.613h11.29c.892 0 1.613-.721 1.613-1.613s-.72-1.613-1.613-1.613zM17.742 53.387h11.29c.892 0 1.613-.72 1.613-1.613 0-.892-.72-1.613-1.613-1.613h-11.29c-.892 0-1.613.721-1.613 1.613s.721 1.613 1.613 1.613zM8.065 82.42c-.892 0-1.613.72-1.613 1.612v3.226c0 .892.72 1.613 1.613 1.613.891 0 1.612-.721 1.612-1.613v-3.226c0-.892-.72-1.613-1.612-1.613zM16.129 82.42c-.892 0-1.613.72-1.613 1.612v3.226c0 .892.721 1.613 1.613 1.613s1.613-.721 1.613-1.613v-3.226c0-.892-.721-1.613-1.613-1.613zM24.194 82.42c-.892 0-1.613.72-1.613 1.612v3.226c0 .892.72 1.613 1.613 1.613.891 0 1.612-.721 1.612-1.613v-3.226c0-.892-.72-1.613-1.612-1.613zM32.258 82.42c-.892 0-1.613.72-1.613 1.612v3.226c0 .892.721 1.613 1.613 1.613s1.613-.721 1.613-1.613v-3.226c0-.892-.721-1.613-1.613-1.613zM40.323 82.42c-.892 0-1.613.72-1.613 1.612v3.226c0 .892.72 1.613 1.613 1.613.892 0 1.612-.721 1.612-1.613v-3.226c0-.892-.72-1.613-1.612-1.613zM48.387 82.42c-.892 0-1.613.72-1.613 1.612v3.226c0 .892.721 1.613 1.613 1.613S50 88.15 50 87.258v-3.226c0-.892-.721-1.613-1.613-1.613zM56.452 82.42c-.892 0-1.613.72-1.613 1.612v3.226c0 .892.72 1.613 1.613 1.613.892 0 1.613-.721 1.613-1.613v-3.226c0-.892-.721-1.613-1.613-1.613zM64.516 88.871c.892 0 1.613-.721 1.613-1.613v-3.226c0-.892-.72-1.613-1.613-1.613-.892 0-1.613.721-1.613 1.613v3.226c0 .892.721 1.613 1.613 1.613z"/>
        <path fill="#2D2D2D" fill-rule="nonzero" d="M97.915 79.666L84.52 66.273C87.16 62.06 88.71 57.1 88.71 51.774c0-10.456-5.887-19.556-14.516-24.18V9.839A4.845 4.845 0 0 0 69.354 5H22.028c-2.156 0-4.182.84-5.703 2.363L2.363 21.324A8.014 8.014 0 0 0 0 27.026v63.458a4.845 4.845 0 0 0 4.839 4.839h64.516a4.845 4.845 0 0 0 4.839-4.84V75.956a27.339 27.339 0 0 0 1.595-.95l13.393 13.393a6.157 6.157 0 0 0 4.366 1.805c1.581 0 3.163-.601 4.367-1.805a6.18 6.18 0 0 0 0-8.732zM4.644 23.605L18.606 9.644c.231-.233.483-.436.749-.613v13.71c0 .891-.723 1.614-1.613 1.614H4.034c.177-.27.38-.521.61-.75zm66.324 66.879c0 .89-.723 1.613-1.613 1.613H4.839c-.89 0-1.613-.723-1.613-1.613V27.58h14.516a4.845 4.845 0 0 0 4.839-4.84V8.227h46.774c.89 0 1.613.722 1.613 1.613v16.313c-3.015-1.142-6.268-1.797-9.678-1.797-15.119 0-27.419 12.3-27.419 27.42 0 15.119 12.3 27.419 27.42 27.419 3.409 0 6.662-.655 9.677-1.797v13.087zM61.29 75.968c-13.34 0-24.193-10.853-24.193-24.194 0-13.34 10.853-24.193 24.193-24.193 13.34 0 24.194 10.853 24.194 24.193 0 13.34-10.853 24.194-24.194 24.194zm34.344 10.15a2.953 2.953 0 0 1-4.171 0l-13-13a27.638 27.638 0 0 0 4.17-4.171l13 13a2.953 2.953 0 0 1 0 4.17z"/>
        <path fill="#2D2D2D" fill-rule="nonzero" d="M61.29 32.42c-10.672 0-19.355 8.682-19.355 19.354 0 10.673 8.683 19.355 19.355 19.355 10.673 0 19.355-8.682 19.355-19.355 0-10.672-8.682-19.355-19.355-19.355zm0 35.483c-8.893 0-16.129-7.235-16.129-16.129 0-8.893 7.236-16.129 16.13-16.129 8.893 0 16.128 7.236 16.128 16.13 0 8.893-7.235 16.128-16.129 16.128z"/>
        <path fill="#FFF" fill-rule="nonzero" d="M72.163 47.715A12.891 12.891 0 0 0 60.29 39.87c-.892 0-1.613.72-1.613 1.613 0 .892.721 1.613 1.613 1.613 3.886 0 7.381 2.31 8.905 5.884a1.612 1.612 0 0 0 2.118.85c.82-.349 1.2-1.297.85-2.116z"/>
        <path fill="#2D2D2D" fill-rule="nonzero" d="M73.163 46.715A12.891 12.891 0 0 0 61.29 38.87c-.892 0-1.613.72-1.613 1.613 0 .892.721 1.613 1.613 1.613 3.886 0 7.381 2.31 8.905 5.884a1.612 1.612 0 0 0 2.118.85c.82-.349 1.2-1.297.85-2.116z"/>
        <path d="M0 0h100v100H0z"/>
    </g>
</svg>
