<svg xmlns="http://www.w3.org/2000/svg" xmlns:xlink="http://www.w3.org/1999/xlink" width="283" height="41" viewBox="0 0 283 41">
    <defs>
        <path id="a" d="M0 .081h51.04v39.913H0z"/>
        <path id="c" d="M.929.081h41.088V40H.929z"/>
    </defs>
    <g fill="none" fill-rule="evenodd">
        <g transform="translate(0 .92)">
            <mask id="b" fill="#fff">
                <use xlink:href="#a"/>
            </mask>
            <path fill="#FEFEFE" d="M44.003 20.037v.003h7.038v-.003C51.04 9.012 42.11.08 31.087.08c-7.205 0-13.491 3.824-17.002 9.535V.08H7.04L0 7.125h7.04v32.87h7.045v-9.542a19.85 19.85 0 0 1-2.957-10.413c0-4.15 1.55-7.935 4.089-10.827.062-.068.127-.143.192-.21.353-.394.724-.762 1.114-1.117.08-.07.158-.143.238-.217.427-.37.872-.727 1.337-1.055.04-.025.074-.056.11-.083.52-.359 1.062-.693 1.625-.993.022-.013.046-.022.068-.034.504-.266 1.03-.505 1.565-.718.16-.065.322-.12.486-.18.41-.15.826-.284 1.253-.399.198-.055.396-.108.597-.154.427-.099.86-.18 1.296-.245.186-.028.37-.062.563-.086a16.552 16.552 0 0 1 1.9-.118c.956 0 1.89.093 2.799.251.118.021.242.027.356.052.158.031.309.078.464.112a16.3 16.3 0 0 1 3.87 1.386l.016.01c.442.225.875.472 1.296.741.037.025.068.05.105.078.384.247.76.507 1.123.79.034.023.062.051.093.073.362.284.714.581 1.052.894.03.025.055.06.083.083.337.316.662.641.968.984.034.04.065.084.099.121.297.337.582.68.85 1.042.116.152.215.32.326.477.173.253.356.501.52.764.164.272.306.56.46.838.084.161.183.32.264.486.154.312.287.637.42.965.062.142.133.278.189.427.173.461.328.931.46 1.411.007.015.013.027.016.046.276.993.46 2.02.545 3.081.046.433.068.872.068 1.321" mask="url(#b)"/>
        </g>
        <g transform="translate(43 .92)">
            <mask id="d" fill="#fff">
                <use xlink:href="#c"/>
            </mask>
            <path fill="#FEFEFE" d="M26.766 25.906H15.02l11.746-11.731v11.73zm7.035 0V.08h-1.173L.928 31.778h25.838V40H33.8v-8.222h8.216v-5.872H33.8z" mask="url(#d)"/>
        </g>
        <path fill="#ED7700" d="M43.928 32.694l6.355-6.354c.483-1.717.755-3.514.755-5.383h-7.035c0 7.128-5.78 12.913-12.916 12.913-7.14 0-12.913-5.785-12.913-12.913 0-7.131 5.774-12.915 12.913-12.915 6.686 0 12.18 5.079 12.848 11.585-.678-8.45-7.738-15.103-16.375-15.103-9.082 0-16.432 7.36-16.432 16.433 0 11.019 8.93 19.96 19.96 19.96 6.629 0 12.484-3.245 16.114-8.223h-3.273z"/>
        <path fill="#FEFEFE" d="M125.156 35.526c-5.335-5.503-9.074-11.552-11.048-18.19-2.73 9.957-7.309 16.972-16.425 23.063l-2.773-2.69c11.133-6.3 16.972-17.516 17.308-33.605v-2.31h3.696V5.7h.042c.084 9.199 2.521 20.247 17.475 32.513l-3.15 2.269-5.125-4.957zM181.438 16.79c-6.218-.672-10.922-3.066-14.115-7.226-2.605 3.445-6.344 5.63-11.174 6.428l-1.303-3.277c1.89-.252 3.571-.63 5.041-1.092 1.554-.588 3.32-2.1 5.21-4.453h-4.621c-1.596 1.597-2.73 2.605-3.403 3.025l-2.52-2.437a17.792 17.792 0 0 0 5.88-6.259l2.984 1.723-.589.84h17.685l1.933 1.932a48.895 48.895 0 0 1-5.546 5.881l-2.563-2.226 2.648-2.479h-7.52c2.352 3.613 6.805 5.713 13.358 6.217l-1.05 3.403h-.335zm-6.553 13.106H153.04v2.06l.126.167h21.55l.167-.168v-2.059zm-21.844-2.94h21.844v-2.31H153.04v2.31zm0-5.25h21.844V19.73l-.168-.126h-21.55c-.126 0-.168.042-.126.126v1.975zm-7.856-15.124h9.243V3.348h-9.243v3.234zm24.659 28.65h-12.225l.756 2.562c-3.403 1.26-7.603 2.226-12.644 2.898l-.713-3.402c4.073-.588 7.434-1.303 10.123-2.059h-5.083c-.294 0-.42-.168-.42-.504V17c0-.294.125-.462.42-.462h27.767c.294 0 .462.168.462.462v17.727c0 .336-.168.504-.463.504h-4.662c2.856.336 6.006 1.05 9.493 2.06l-.756 3.401c-5.125-1.428-9.326-2.184-12.518-2.394l.463-3.067zm-25.583-21.34a21.635 21.635 0 0 0 8.612-4.454l2.184 2.647c-3.319 2.604-6.427 4.243-9.242 4.915l-1.554-3.108zM228.141 37.458l-24.154 2.227-1.05-3.655 4.494-.336a122.057 122.057 0 0 0 7.226-14.03h-9.074v-3.571h10.754V10.53h-10.082V6.96h10.082V1.626h3.571V6.96h10.837v3.57h-10.837v7.562h12.308v3.57h-13.653c-1.596 3.823-3.822 8.36-6.805 13.653l14.87-1.218c-1.343-2.731-2.646-5-3.822-6.806l3.15-1.722c2.353 3.445 4.621 7.897 6.764 13.316l-3.277 1.597-1.302-3.025zm-25.75-27.095c-3.025-2.436-5.504-4.2-7.562-5.251l1.974-3.024c2.353 1.218 4.873 3.024 7.73 5.335l-2.143 2.94zm-1.093 10.166c-2.814-2.1-5.167-3.613-7.099-4.537l1.848-3.066c2.184 1.05 4.621 2.562 7.267 4.62l-2.016 2.983zm-7.519 18.189c3.654-4.368 6.133-9.283 7.351-14.786l3.487.84c-1.849 6.93-4.369 12.182-7.435 15.71l-3.403-1.764zM274.76 32.08H250.9v1.387l.084.126h23.65l.126-.126V32.08zm-23.86-2.394h23.86v-1.512H250.9v1.512zm0-3.948h23.86v-1.554l-.126-.126h-23.65l-.084.126v1.554zm18.987 10.292h-14.87l.966 2.772c-3.445 1.26-6.51 1.807-9.158 1.807-.756 0-1.512-.042-2.184-.126l-.378-3.487c.84.084 1.68.126 2.52.126 2.521 0 5-.378 7.435-1.092h-6.174c-.253 0-.379-.126-.379-.42V21.999c0-.251.126-.378.38-.378h29.53c.294 0 .42.127.42.378v13.61c0 .295-.126.42-.42.42h-2.899c2.185.337 4.537.84 7.184 1.513l-.925 3.277c-4.62-1.218-8.359-1.933-11.216-2.06l.168-2.73zm-.714-18.273v-2.563h-8.779v-2.436h8.78V10.91h-5.504l-1.218 1.428-2.394-1.723c1.092-1.008 1.974-2.226 2.646-3.696h-15.459c-.168 0-.252.084-.252.252v1.512h12.31v2.395h-4.79v1.848h4.285v2.436h-4.286v2.058l4.915-.63.42 2.899c-3.696.756-8.737 1.05-14.954.966l-.336-2.94 6.721-.085v-2.268h-4.495v-2.436h4.495v-1.848h-5.839v-.337h-1.722V4.566c0-.378.21-.588.588-.588h16.845V1.794h3.528v2.184h15.291l2.646 1.344c-.084 1.765-.503 3.78-1.302 6.176l-3.066-.925.924-3.234c0-.252-.126-.42-.42-.42h-12.98l-.673 1.596h12.73v2.395h-5.42v1.848h8.527v2.436h-8.527v2.563h3.991c.336 0 .504-.127.504-.463V15.95h2.898v3.15c0 .84-.42 1.26-1.26 1.26h-15.375c-.798 0-1.218-.42-1.218-1.26v-3.15h2.898v1.344c0 .336.168.463.462.463h3.865z"/>
    </g>
</svg>
