<svg xmlns="http://www.w3.org/2000/svg" xmlns:xlink="http://www.w3.org/1999/xlink" width="278" height="40" viewBox="0 0 278 40">
    <defs>
        <path id="a" d="M0 0h51.148v39.998H0z"/>
        <path id="c" d="M.02 0h41.176v40H.02z"/>
        <path id="e" d="M1 40h277V1H1z"/>
    </defs>
    <g fill="none" fill-rule="evenodd">
        <mask id="b" fill="#fff">
            <use xlink:href="#a"/>
        </mask>
        <path fill="#686868" d="M44.095 19.995v.003h7.053v-.003C51.148 8.95 42.2 0 31.154 0c-7.22 0-13.52 3.833-17.038 9.555V-.001H7.057L0 7.056h7.057v32.943h7.06v-9.561a19.879 19.879 0 0 1-2.966-10.439c0-4.16 1.553-7.949 4.098-10.85.062-.069.127-.139.192-.207a15.71 15.71 0 0 1 1.116-1.12c.082-.071.158-.145.24-.216.428-.376.873-.73 1.34-1.058.038-.027.073-.055.11-.083a16.776 16.776 0 0 1 1.695-1.033 17.246 17.246 0 0 1 1.57-.716c.16-.064.323-.123.486-.183.412-.149.83-.282 1.257-.4.198-.052.395-.105.598-.151.426-.1.86-.18 1.298-.245.187-.032.373-.066.564-.09a17.573 17.573 0 0 1 1.905-.115c.958 0 1.892.092 2.804.252.12.02.242.026.358.05.156.032.308.08.465.11 1.362.307 2.668.772 3.878 1.392.005.003.01.003.014.006.445.23.88.478 1.3.747.036.022.07.05.106.074.384.25.762.513 1.124.792.034.025.062.053.093.077.364.285.716.58 1.055.896.03.025.055.056.084.08.336.32.662.645.968.986.036.043.066.085.1.124.297.338.583.678.852 1.042.115.154.214.322.326.477.175.255.358.503.521.77.164.268.308.557.462.84.085.16.182.319.265.486.155.313.286.639.42.963.062.143.133.284.19.432.174.461.327.93.462 1.413.005.014.011.029.014.044.276.995.462 2.027.547 3.088.045.436.067.877.067 1.323" mask="url(#b)"/>
        <g transform="translate(44)">
            <mask id="d" fill="#fff">
                <use xlink:href="#c"/>
            </mask>
            <path fill="#686868" d="M25.913 25.876H14.142l11.77-11.753v11.753zm7.05 0V0h-1.175L.02 31.76h25.893V40h7.05v-8.24h8.233v-5.884h-8.233z" mask="url(#d)"/>
        </g>
        <path fill="#ED7700" d="M44.021 31.76l6.369-6.37c.482-1.717.756-3.52.756-5.391h-7.051c0 7.14-5.791 12.94-12.942 12.94-7.156 0-12.94-5.8-12.94-12.94 0-7.146 5.784-12.943 12.94-12.943 6.699 0 12.206 5.09 12.874 11.61C43.35 10.2 36.274 3.532 27.62 3.532c-9.103 0-16.469 7.374-16.469 16.467 0 11.04 8.95 20 20.002 20 6.644 0 12.511-3.254 16.148-8.238h-3.28z"/>
        <path fill="#ED7700" d="M44.053 31.866l6.21-6.286c.47-1.698.737-3.475.737-5.324h-6.874c0 7.05-5.648 12.773-12.62 12.773-6.978 0-12.62-5.722-12.62-12.773 0-7.054 5.642-12.776 12.62-12.776 6.531 0 11.9 5.025 12.554 11.46C43.397 10.582 36.499 4 28.058 4 19.183 4 12 11.28 12 20.256 12 31.156 20.728 40 31.505 40c6.478 0 12.2-3.209 15.746-8.134h-3.198z"/>
        <mask id="f" fill="#fff">
            <use xlink:href="#e"/>
        </mask>
        <path fill="#686868" d="M115.919.426c0 3.753-.128 6.909-.299 9.553 2.474 11.343 8.615 20 18.337 25.97l-2.686 3.54c-8.188-5.46-13.902-12.794-17.143-21.92-2.815 8.87-8.7 16.205-17.655 22.005L94 35.949c11.514-6.994 17.441-16.589 17.783-28.827 0-2.858.042-5.075.042-6.696h4.094zm47.2 5.416a22.146 22.146 0 0 1-4.86 4.691l-2.218-2.942c2.985-2.047 5.032-4.52 6.14-7.506l3.71.427c-.255.682-.511 1.364-.81 2.004h14.968V5.33c-1.108 2.26-2.345 4.137-3.667 5.587l-2.772-2.175a17.318 17.318 0 0 0 2.218-2.9H163.12zM144.784 2.56h10.576V5.97h-10.576V2.56zm-.853 7.676h12.324v3.454H143.93v-3.454zm23.54-4.009l3.41.682c-.17.597-.34 1.152-.553 1.706 3.027 2.815 6.865 4.52 11.47 5.075l-1.662 3.326a19.446 19.446 0 0 1-3.284-.768v17.484h-8.443a92.727 92.727 0 0 1 13.177 3.07L180.263 40c-4.52-1.62-9.297-2.857-14.244-3.71l1.322-2.559h-9.808l1.749 2.26c-3.156 1.664-7.676 2.986-13.561 3.966l-1.834-3.113c5.459-.853 9.638-1.876 12.623-3.113h-7.847V16.12h10.278l-1.62-2.473c5.713-1.023 9.082-3.497 10.148-7.42zm-6.482 9.893h15.48a20.44 20.44 0 0 1-7.72-4.776c-1.79 2.218-4.349 3.838-7.76 4.776zm11.897 14.371V28.4H152.63v2.09h20.256zm-20.256-4.733h20.256V23.88H152.63v1.876zm0-4.563h20.256V19.19H152.63v2.004zM214.5.426h4.094v6.44h10.619v3.923h-10.619v7.036h11.77v3.923h-13.86c-2.43 5.715-4.562 9.936-6.438 12.666 4.69-.512 9.339-1.28 13.944-2.218a88.363 88.363 0 0 0-3.411-6.396l3.923-1.28a91.817 91.817 0 0 1 6.61 13.646l-3.838 1.706a104.06 104.06 0 0 0-1.663-4.136c-6.354 1.236-13.263 2.217-20.725 2.985l-.939-3.54c.342-.128.64-.256.853-.384 1.877-1.663 4.307-6.012 7.292-13.049h-9.424v-3.923H214.5V10.79h-9.766V6.866h9.766V.426zm-18.507.342c2.73 2.132 5.032 4.221 6.951 6.31l-2.9 2.943c-1.62-2.004-3.966-4.136-6.993-6.439l2.942-2.814zm-1.066 9.978c2.516 2.132 4.648 4.265 6.44 6.397l-2.943 2.9c-1.493-2.005-3.625-4.18-6.397-6.482l2.9-2.815zm4.136 12.026l3.668 1.492a152.535 152.535 0 0 1-6.098 15.096l-4.051-1.79a129.682 129.682 0 0 0 6.481-14.798zm64.515-12.836a13.027 13.027 0 0 1-1.536 1.535h4.52V9.936h-2.984zm-2.133 1.535l-2.132-1.535c1.45-.98 2.388-2.345 2.857-4.051l2.985.512a8.423 8.423 0 0 1-.34 1.108h9.935V5.501h-29.083V7.08h12.665v2.644h-5.287V11.3h4.307v2.644h-4.307v1.663c2.09-.086 3.923-.214 5.458-.299v2.73c-2.985.255-7.847.468-14.627.682l-.426-2.9 6.055-.128v-1.748h-4.35V11.3h4.35V9.723h-5.16v-.597h-2.388v-6.61h16.034a14.828 14.828 0 0 0-1.066-1.834L260.975 0a28.7 28.7 0 0 1 1.152 2.516h16.332v6.61h-3.582v.81h-4.648v1.535h6.823v2.516h-6.823v2.132h2.942v-1.364h3.199v3.667H260.42v-3.667h3.198v1.364h2.943v-2.132h-7.207v-2.516h2.09zm-14.797 8.358h27.335v14.968h-7.335c4.392.512 8.614 1.28 12.623 2.218l-1.237 2.942c-4.52-1.322-9.254-2.345-14.2-3.113l1.023-2.047h-9.808l1.45 1.92c-3.241 1.364-7.847 2.43-13.902 3.283l-1.578-2.772c5.373-.682 9.552-1.492 12.58-2.43h-6.951V19.828zm23.454 12.197v-1.749h-19.573v1.749H270.1zm-19.573-4.094H270.1v-1.706h-19.573v1.706zm0-4.009H270.1v-1.578h-19.573v1.578z" mask="url(#f)"/>
    </g>
</svg>
