<?xml version="1.0" encoding="UTF-8"?>
<svg width="16px" height="16px" viewBox="0 0 16 16" version="1.1" xmlns="http://www.w3.org/2000/svg" xmlns:xlink="http://www.w3.org/1999/xlink">
    <!-- Generator: Sketch 49 (51002) - http://www.bohemiancoding.com/sketch -->
    <title>line copy</title>
    <desc>Created with Sketch.</desc>
    <defs></defs>
    <g id="Symbols" stroke="none" stroke-width="1" fill="none" fill-rule="evenodd">
        <g id="line-copy" fill="#000000" fill-rule="nonzero">
            <path d="M1.9047619,0 C0.853333333,0 0,0.853333333 0,1.9047619 L0,14.0952381 C0,15.1466667 0.853333333,16 1.9047619,16 L14.0952381,16 C15.1466667,16 16,15.1466667 16,14.0952381 L16,1.9047619 C16,0.853333333 15.1466667,0 14.0952381,0 L1.9047619,0 Z M8,2.66666667 C11.1504762,2.66666667 13.7142857,4.7082739 13.7142857,7.2187501 C13.7142857,8.22065486 13.3178274,9.12791657 12.4873512,10.0193451 C11.889256,10.6974404 10.9183036,11.443869 10.0230655,12.0610118 C9.12782743,12.6705356 8.3047619,13.1503272 8,13.2760415 C7.87809524,13.3255653 7.78666667,13.3482141 7.71428571,13.3482141 C7.46285714,13.3482141 7.48541676,13.0822023 7.50446438,12.9717261 C7.51970248,12.8879166 7.58854171,12.4910716 7.58854171,12.4910712 C7.60758933,12.3501192 7.62633943,12.1260712 7.56919657,11.9851192 C7.50443467,11.8289288 7.24916648,11.7486606 7.06249981,11.7105653 C4.31964305,11.3524701 2.28571429,9.46636914 2.28571429,7.2187501 C2.28571429,4.7082739 4.84952381,2.66666667 8,2.66666667 Z M7.61607162,5.71354171 C7.42414438,5.7171021 7.23809524,5.86357143 7.23809524,6.0952381 L7.23809524,8.38095238 C7.23809524,8.5912381 7.4087619,8.76190476 7.61904762,8.76190476 C7.82933333,8.76190476 8,8.5912381 8,8.38095238 L8,7.28422629 L8.83258933,8.60193448 C9.04820838,8.90364876 9.52380952,8.75161905 9.52380952,8.38095238 L9.52380952,6.0952381 C9.52380952,5.88495238 9.35314286,5.71428571 9.14285714,5.71428571 C8.93257143,5.71428571 8.76190476,5.88495238 8.76190476,6.0952381 L8.76190476,7.23809524 L7.92931543,5.874256 C7.84845829,5.76111314 7.73122781,5.71140533 7.61607162,5.71354171 Z M4.19047619,5.71428571 C3.98019048,5.71428571 3.80952381,5.88495238 3.80952381,6.0952381 L3.80952381,8.38095238 C3.80952381,8.5912381 3.98019048,8.76190476 4.19047619,8.76190476 L5.33333333,8.76190476 C5.54361905,8.76190476 5.71428571,8.5912381 5.71428571,8.38095238 C5.71428571,8.17066667 5.54361905,8 5.33333333,8 L4.57142857,8 L4.57142857,6.0952381 C4.57142857,5.88495238 4.4007619,5.71428571 4.19047619,5.71428571 Z M6.47619048,5.71428571 C6.26590476,5.71428571 6.0952381,5.88495238 6.0952381,6.0952381 L6.0952381,8.38095238 C6.0952381,8.5912381 6.26590476,8.76190476 6.47619048,8.76190476 C6.68647619,8.76190476 6.85714286,8.5912381 6.85714286,8.38095238 L6.85714286,6.0952381 C6.85714286,5.88495238 6.68647619,5.71428571 6.47619048,5.71428571 Z M10.2857143,5.71428571 C10.0754286,5.71428571 9.9047619,5.88495238 9.9047619,6.0952381 L9.9047619,8.38095238 C9.9047619,8.5912381 10.0754286,8.76190476 10.2857143,8.76190476 L11.4285714,8.76190476 C11.6388571,8.76190476 11.8095238,8.5912381 11.8095238,8.38095238 C11.8095238,8.17066667 11.6388571,8 11.4285714,8 L10.6666667,8 L10.6666667,7.61904762 L11.4285714,7.61904762 C11.6392381,7.61904762 11.8095238,7.44838095 11.8095238,7.23809524 C11.8095238,7.02780952 11.6392381,6.85714286 11.4285714,6.85714286 L10.6666667,6.85714286 L10.6666667,6.47619048 L11.4285714,6.47619048 C11.6388571,6.47619048 11.8095238,6.30552381 11.8095238,6.0952381 C11.8095238,5.88495238 11.6388571,5.71428571 11.4285714,5.71428571 L10.2857143,5.71428571 Z" id="Shape"></path>
        </g>
    </g>
</svg>