<svg xmlns="http://www.w3.org/2000/svg" width="16" height="16" viewBox="0 0 16 16">
    <g fill="none" fill-rule="evenodd">
        <path d="M0 0h16v16H0z"/>
        <path fill="#000" fill-rule="nonzero" d="M5.168 12.9H3.103V6.256h2.065V12.9zM4.114 5.306a1.204 1.204 0 1 1 0-2.408 1.204 1.204 0 0 1 0 2.408zm8.789 7.594h-2.064V9.669c0-.77-.014-1.762-1.073-1.762-1.074 0-1.24.84-1.24 1.706V12.9H6.463V6.256h1.98v.907h.029c.276-.522.949-1.073 1.953-1.073 2.091 0 2.478 1.377 2.478 3.166V12.9z"/>
        <path stroke="#000" stroke-width="1.4" d="M13.95 15H2.05C1.47 15 1 14.53 1 13.95V2.05C1 1.47 1.47 1 2.05 1h11.9c.58 0 1.05.47 1.05 1.05v11.9c0 .58-.47 1.05-1.05 1.05z"/>
    </g>
</svg>
