<svg xmlns="http://www.w3.org/2000/svg" width="16" height="15" viewBox="0 0 16 15">
    <path fill="#000" fill-rule="nonzero" d="M13.143 0c-1.572 0-2.857 1.298-2.857 2.885 0 .198.022.387.058.577L5.165 5.814a2.855 2.855 0 0 0-2.308-1.199C1.286 4.615 0 5.913 0 7.5c0 1.587 1.286 2.885 2.857 2.885.951 0 1.8-.483 2.317-1.213l5.183 2.326a2.814 2.814 0 0 0-.071.617c0 1.587 1.285 2.885 2.857 2.885C14.714 15 16 13.702 16 12.115c0-1.586-1.286-2.884-2.857-2.884-.951 0-1.8.482-2.317 1.212L5.643 8.122c.045-.203.071-.41.071-.622 0-.216-.026-.428-.071-.631l5.152-2.353a2.847 2.847 0 0 0 2.348 1.253C14.714 5.77 16 4.471 16 2.885 16 1.298 14.714 0 13.143 0zm0 1.154c.955 0 1.714.766 1.714 1.73 0 .965-.759 1.731-1.714 1.731a1.712 1.712 0 0 1-1.714-1.73c0-.965.759-1.731 1.714-1.731zM2.857 5.769c.956 0 1.714.766 1.714 1.731 0 .965-.758 1.73-1.714 1.73A1.712 1.712 0 0 1 1.143 7.5c0-.965.759-1.73 1.714-1.73zm10.286 4.616c.955 0 1.714.766 1.714 1.73 0 .965-.759 1.731-1.714 1.731a1.712 1.712 0 0 1-1.714-1.73c0-.965.759-1.731 1.714-1.731z"/>
</svg>
