<svg xmlns="http://www.w3.org/2000/svg" width="100" height="100" viewBox="0 0 100 100">
    <g fill="none" fill-rule="evenodd">
        <path d="M0 0h100v100H0z"/>
        <path fill="#EAEAEA" d="M8 80h85v15H8zM8 27h85v10H8z"/>
        <path fill="#F7BB2C" fill-opacity=".8" d="M18 8h75v26H12V14a6 6 0 0 1 6-6z"/>
        <path fill="#000" fill-rule="nonzero" d="M11.538 2C8.271 2 5.77 4.497 5.77 7.76v15.36H3.846A3.85 3.85 0 0 0 0 26.96v15.36a3.85 3.85 0 0 0 3.846 3.84H5.77v46.08c0 3.263 2.502 5.76 5.77 5.76h76.923c3.267 0 5.769-2.497 5.769-5.76V46.16h1.923A3.85 3.85 0 0 0 100 42.32V26.96c0-2.303-1.728-3.84-3.846-3.84H94.23V7.76c0-3.263-2.502-5.76-5.77-5.76H11.539zm0 3.84h76.924c1.156 0 1.923.765 1.923 1.92v24.96H9.615V7.76c0-1.155.767-1.92 1.923-1.92zm42.308 5.857c-.338 0-.676.09-.961.286l-3.847 1.92c-.961.382-1.344 1.537-.961 2.497.383.96 1.54 1.343 2.501.96l.962-.577v8.257c0 1.155.766 1.92 1.923 1.92s1.923-.765 1.923-1.92V13.52c.383-.577 0-1.343-.578-1.537a1.698 1.698 0 0 0-.962-.286zm25 0c-.338 0-.676.09-.961.286l-3.847 1.92c-.961.382-1.344 1.537-.961 2.497.383.96 1.54 1.343 2.501.96l.962-.577v8.257c0 1.155.766 1.92 1.923 1.92s1.923-.765 1.923-1.92V13.52c.383-.577 0-1.343-.578-1.537a1.698 1.698 0 0 0-.962-.286zM65.385 13.52c-1.157 0-1.923.765-1.923 1.92v1.92h-1.924c-1.156 0-1.923.765-1.923 1.92 0 1.155.767 1.92 1.923 1.92h1.924v1.92c0 1.155.766 1.92 1.923 1.92 1.156 0 1.923-.765 1.923-1.92V21.2h1.923c1.157 0 1.923-.765 1.923-1.92 0-1.155-.766-1.92-1.923-1.92h-1.923v-1.92c0-1.155-.767-1.92-1.923-1.92zM3.846 26.96H5.77v15.36H3.846V26.96zm90.385 0h1.923v15.36H94.23V26.96zm-84.616 9.6h80.77v55.68c0 1.155-.767 1.92-1.923 1.92H11.538c-1.156 0-1.923-.765-1.923-1.92V36.56zm11.539 3.84c-1.157 0-1.923.765-1.923 1.92v3.84c0 1.155.766 1.92 1.923 1.92s1.923-.765 1.923-1.92v-3.84c0-1.155-.766-1.92-1.923-1.92zm9.615 0c-1.157 0-1.923.765-1.923 1.92v3.84c0 1.155.766 1.92 1.923 1.92s1.923-.765 1.923-1.92v-3.84c0-1.155-.766-1.92-1.923-1.92zm9.616 0c-1.157 0-1.923.765-1.923 1.92v3.84c0 1.155.766 1.92 1.923 1.92 1.156 0 1.923-.765 1.923-1.92v-3.84c0-1.155-.767-1.92-1.923-1.92zm9.615 0c-1.157 0-1.923.765-1.923 1.92v3.84c0 1.155.766 1.92 1.923 1.92s1.923-.765 1.923-1.92v-3.84c0-1.155-.766-1.92-1.923-1.92zm9.615 0c-1.156 0-1.923.765-1.923 1.92v3.84c0 1.155.767 1.92 1.923 1.92 1.157 0 1.923-.765 1.923-1.92v-3.84c0-1.155-.766-1.92-1.923-1.92zm9.616 0c-1.157 0-1.923.765-1.923 1.92v3.84c0 1.155.766 1.92 1.923 1.92s1.923-.765 1.923-1.92v-3.84c0-1.155-.766-1.92-1.923-1.92zm9.615 0c-1.157 0-1.923.765-1.923 1.92v3.84c0 1.155.766 1.92 1.923 1.92s1.923-.765 1.923-1.92v-3.84c0-1.155-.766-1.92-1.923-1.92zM21.154 51.92a3.85 3.85 0 0 0-3.846 3.84v7.68a3.85 3.85 0 0 0 3.846 3.84h11.538a3.85 3.85 0 0 0 3.846-3.84v-7.68a3.85 3.85 0 0 0-3.846-3.84H21.154zm23.077 0a3.85 3.85 0 0 0-3.846 3.84v7.68a3.85 3.85 0 0 0 3.846 3.84h11.538a3.85 3.85 0 0 0 3.846-3.84v-7.68a3.85 3.85 0 0 0-3.846-3.84H44.231zm23.077 0a3.85 3.85 0 0 0-3.846 3.84v26.88a3.85 3.85 0 0 0 3.846 3.84h11.538a3.85 3.85 0 0 0 3.846-3.84V55.76a3.85 3.85 0 0 0-3.846-3.84H67.308zm-46.154 3.84h11.538v7.68H21.154v-7.68zm23.077 0h11.538v7.68H44.231v-7.68zm23.077 0h11.538v26.88H67.308V55.76zM21.154 71.12a3.85 3.85 0 0 0-3.846 3.84v7.68a3.85 3.85 0 0 0 3.846 3.84h11.538a3.85 3.85 0 0 0 3.846-3.84v-7.68a3.85 3.85 0 0 0-3.846-3.84H21.154zm23.077 0a3.85 3.85 0 0 0-3.846 3.84v7.68a3.85 3.85 0 0 0 3.846 3.84h11.538a3.85 3.85 0 0 0 3.846-3.84v-7.68a3.85 3.85 0 0 0-3.846-3.84H44.231zm-23.077 3.84h11.538v7.68H21.154v-7.68zm23.077 0h11.538v7.68H44.231v-7.68z"/>
    </g>
</svg>
