<svg xmlns="http://www.w3.org/2000/svg" width="100" height="100" viewBox="0 0 100 100">
    <g fill="none" fill-rule="evenodd">
        <path d="M0 0h100v100H0z"/>
        <path fill="#EAEAEA" d="M34.313 84.199h8.814V75H51v15H32zM1 13l.646 59H98z"/>
        <path fill="#F7BB2C" fill-opacity=".8" d="M38 29l.972 29L64 44.056z"/>
        <path fill="#000" fill-rule="nonzero" d="M4.688 10C2.106 10 0 12.1 0 14.673V70.75c0 2.574 2.106 4.673 4.688 4.673h35.937v6.23h-3.662c-2.088 0-4.047.81-5.524 2.283L27.02 88.34a1.55 1.55 0 0 0-.335 1.698c.238.584.811.961 1.44.961h43.75c.629 0 1.202-.377 1.44-.961a1.55 1.55 0 0 0-.335-1.698l-4.42-4.405a7.768 7.768 0 0 0-5.523-2.282h-3.662v-6.23h35.938c2.581 0 4.687-2.1 4.687-4.674V14.673C100 12.1 97.894 10 95.312 10H4.689zm0 3.115h90.624c.861 0 1.563.7 1.563 1.558v48.289h-4.688c-.866 0-1.562.693-1.562 1.557s.696 1.558 1.563 1.558h4.687v4.673c0 .858-.702 1.558-1.563 1.558H4.689c-.861 0-1.563-.7-1.563-1.558v-4.673h57.94c.867 0 1.563-.694 1.563-1.558 0-.864-.696-1.557-1.562-1.557H3.125V14.673c0-.858.702-1.558 1.563-1.558zm3.125 3.116c-.867 0-1.563.693-1.563 1.557s.696 1.558 1.563 1.558h71.874c.867 0 1.563-.694 1.563-1.558 0-.864-.696-1.557-1.563-1.557H7.814zm78.124 0c-.866 0-1.562.693-1.562 1.557s.696 1.558 1.563 1.558h6.25c.866 0 1.562-.694 1.562-1.558 0-.864-.696-1.557-1.563-1.557h-6.25zm-45.336 7.417a3.104 3.104 0 0 0-1.581.414 3.069 3.069 0 0 0-1.581 2.708v28.768c0 1.138.592 2.154 1.58 2.714a3.118 3.118 0 0 0 3.15-.037l24.097-14.384a3.11 3.11 0 0 0 0-5.355L42.169 24.093a3.17 3.17 0 0 0-1.568-.444zm-.03 3.122l24.096 14.384-24.097 14.39V26.77zM68.75 61.404c-.867 0-1.563.694-1.563 1.558v3.115c0 .864.696 1.558 1.563 1.558s1.563-.694 1.563-1.558v-3.115c0-.864-.696-1.558-1.563-1.558zm7.813 0c-.867 0-1.563.694-1.563 1.558v3.115c0 .864.696 1.558 1.563 1.558.866 0 1.562-.694 1.562-1.558v-3.115c0-.864-.696-1.558-1.563-1.558zm7.812 0c-.867 0-1.563.694-1.563 1.558v3.115c0 .864.696 1.558 1.563 1.558s1.563-.694 1.563-1.558v-3.115c0-.864-.696-1.558-1.563-1.558zM43.75 75.424h12.5v6.23h-12.5v-6.23zm-6.787 9.345h26.074c1.251 0 2.43.487 3.314 1.37l1.752 1.746H31.897l1.752-1.747a4.666 4.666 0 0 1 3.314-1.369z"/>
    </g>
</svg>
