<?xml version="1.0" encoding="UTF-8"?>
<svg width="24px" height="24px" viewBox="0 0 24 24" version="1.1" xmlns="http://www.w3.org/2000/svg" xmlns:xlink="http://www.w3.org/1999/xlink">
    <!-- Generator: sketchtool 51 (57462) - http://www.bohemiancoding.com/sketch -->
    <title>59FBF5FC-33AF-4AE0-ACCE-8C931B5DD1C5</title>
    <desc>Created with sketchtool.</desc>
    <defs></defs>
    <g id="Symbols" stroke="none" stroke-width="1" fill="none" fill-rule="evenodd">
        <g id="--ICON-/-General-/-movie03" fill="#FF7800" fill-rule="nonzero">
            <g id="icons8-film_2" transform="translate(2.000000, 2.000000)">
                <path d="M0,0 L0,20 L20,20 L20,0 L0,0 Z M18,7 L16,7 L16,5 L18,5 L18,7 Z M18,3 L16,3 L16,1 L18,1 L18,3 Z M18,11 L16,11 L16,9 L18,9 L18,11 Z M8,14 L8,6 L14,10 L8,14 Z M18,15 L16,15 L16,13 L18,13 L18,15 Z M18,19 L16,19 L16,17 L18,17 L18,19 Z M4,7 L2,7 L2,5 L4,5 L4,7 Z M4,3 L2,3 L2,1 L4,1 L4,3 Z M4,11 L2,11 L2,9 L4,9 L4,11 Z M4,15 L2,15 L2,13 L4,13 L4,15 Z M4,19 L2,19 L2,17 L4,17 L4,19 Z" id="Shape"></path>
            </g>
        </g>
    </g>
</svg>