<svg xmlns="http://www.w3.org/2000/svg" width="16" height="16" viewBox="0 0 16 16">
    <g fill="none" fill-rule="evenodd">
        <path d="M0 0h16v16H0z"/>
        <g fill="#000" fill-rule="nonzero">
            <path d="M9.264 10.315a.686.686 0 0 1-.678-.693c0-.382.303-.693.678-.693.375 0 .678.31.678.693a.687.687 0 0 1-.678.693zm3.212 0a.686.686 0 0 1-.678-.693c0-.382.305-.693.678-.693.375 0 .68.31.68.693a.686.686 0 0 1-.68.693zM8.786 3.561c.494 0 .895.41.895.914 0 .506-.4.915-.895.915a.904.904 0 0 1-.895-.915c0-.505.4-.914.895-.914zm-4.247 1.83a.905.905 0 0 1-.894-.916c0-.504.4-.914.894-.914.496 0 .896.41.896.914s-.401.915-.896.915z"/>
        </g>
        <path stroke="#000" stroke-width="1.273" d="M12.246 7.664c.132-.411.209-.842.209-1.289 0-2.692-2.564-4.875-5.728-4.875C3.564 1.5 1 3.683 1 6.375c0 1.007.359 1.942.973 2.718L1.71 11.2l1.819-.78c.913.524 2.014.83 3.198.83h.016"/>
        <path stroke="#000" stroke-width="1.273" d="M14.278 12.966c.455-.566.722-1.25.722-1.987 0-1.945-1.852-3.521-4.136-3.521-2.285 0-4.137 1.577-4.137 3.52 0 1.946 1.852 3.522 4.137 3.522a4.59 4.59 0 0 0 2.537-.744l1.036.594-.16-1.384z"/>
    </g>
</svg>
